<svg width="466" height="353" viewBox="0 0 466 353" fill="none" xmlns="http://www.w3.org/2000/svg">
<path d="M324.825 125.272C336.255 118.701 347.436 112.31 358.619 105.925C359.622 105.352 360.587 104.545 361.67 104.312C363.948 103.823 366.303 103.496 368.097 105.677C369.856 107.814 370.275 109.962 368.8 112.494C362.39 123.498 356.104 134.574 349.68 145.57C337.336 166.7 324.901 187.777 312.556 208.907C300.879 228.894 290.013 249.403 277.427 268.798C263.643 290.04 242.945 302.414 218.437 307.805C195.353 312.882 172.857 310.021 151.938 298.87C122.936 283.41 105.104 259.314 100.064 226.72C94.5975 191.36 105.73 161.358 131.693 136.887C139.828 129.218 149.87 124.332 159.461 118.789C190.243 100.996 220.931 83.0432 251.661 65.162C265.953 56.8458 280.241 48.5236 294.572 40.2742C297.27 38.7207 300.238 37.9573 302.842 40.4565C305.414 42.925 304.946 45.5566 303.248 48.5174C297.325 58.8487 291.603 69.296 285.824 79.7094C285.209 80.8167 284.715 81.9909 283.794 83.9054C289.419 82.413 293.202 79.1602 297.327 76.7646C318.059 64.725 338.651 52.4444 359.254 40.1837C361.817 38.6584 364.283 38.2623 366.569 40.234C368.983 42.3153 369.349 44.8224 367.659 47.7745C358.371 63.9952 349.171 80.2661 339.967 96.5347C334.837 105.602 329.759 114.699 324.464 124.077C324.117 124.805 324.2 125.171 324.825 125.272Z" fill="#50276E"/>
<path d="M348.306 59.8725C337.069 80.117 325.847 99.9481 314.614 119.773C311.333 125.564 308.092 131.379 304.693 137.1C303.102 139.78 302.195 142.345 304.87 144.721C307.373 146.944 310.022 146.277 312.687 144.726C324.048 138.111 335.442 131.553 346.832 124.988C347.514 124.594 348.267 124.324 350.363 123.37C346.742 129.599 343.815 134.665 340.86 139.714C320.688 174.178 300.23 208.48 280.488 243.189C273.796 254.955 267.799 266.997 257.421 276.056C230.792 299.299 200.379 305.926 167.232 293.889C134.87 282.138 115.407 258.175 110.16 224.104C104.157 185.134 123.767 149.916 158.409 131.313C187.129 115.889 214.952 98.7956 243.173 82.442C256.831 74.5271 270.49 66.6125 284.402 58.5508C285.12 60.8265 283.791 62.0471 283.049 63.3744C277.043 74.1199 271.023 84.8574 264.936 95.5569C263.376 98.2983 261.923 101.032 264.716 103.686C267.412 106.247 270.202 105.011 272.93 103.399C297.57 88.8303 322.226 74.2861 347.182 59.5714C347.764 59.4243 348.04 59.4405 348.306 59.8725Z" fill="#D0B3D8"/>
<path d="M271.792 212.419C268.418 218.984 263.241 223.529 258.309 228.226C244.476 241.401 231.847 255.432 223.913 273.146C221.69 278.109 216.755 279.387 211.867 280.003C196.365 281.958 181.791 277.975 167.494 272.633C160.779 270.123 154.594 266.519 148.329 263.032C137.449 256.975 132.448 247.576 132.169 235.622C131.437 204.244 140.66 175.928 159.266 150.687C167.005 140.187 177.24 137.294 189.742 140.661C209.28 145.923 225.94 156.475 241.858 168.424C251.339 175.541 260.103 183.488 267.584 192.732C272.173 198.403 275.162 204.564 271.792 212.419Z" fill="#51286F"/>
<path d="M253.846 192.691C252.558 193.189 251.077 193.407 249.601 193.657C242.807 194.806 238.655 198.623 238.033 204.279C237.405 209.979 240.873 215.369 246.857 217.993C252.156 220.316 252.217 220.38 247.999 224.377C235.083 236.614 223.798 250.087 216.131 266.294C214.774 269.163 212.438 269.889 209.667 270.127C194.616 271.419 180.614 267.355 167.024 261.529C162.605 259.633 158.525 256.961 154.206 254.811C145.366 250.409 142.165 242.766 142.091 233.519C141.875 206.539 149.714 181.92 164.978 159.817C172.805 148.483 177.922 147.053 191.089 151.537C215.391 159.814 235.707 174.349 253.846 192.691Z" fill="#905BA6"/>
<path d="M247.436 208.64C245.87 206.443 245.807 204.531 247.698 203.053C249.873 201.353 252.401 201.614 254.811 202.534C256.781 203.285 258.34 204.683 258.321 206.93C258.295 209.888 256.142 210.777 253.611 210.986C251.35 211.172 249.346 210.515 247.436 208.64Z" fill="#814B9D"/>
<g filter="url(#filter0_d_585_182)">
<path d="M208.639 182.694C209.167 185.447 208.815 187.716 207.929 189.932C202.69 203.033 180.087 208.827 169.264 199.838C164.363 195.768 163.333 189.322 166.669 183.592C172.967 172.773 191.31 167.965 202.144 174.336C205.258 176.167 207.584 178.707 208.639 182.694Z" fill="#51286F"/>
</g>
<g filter="url(#filter1_d_585_182)">
<path d="M180.155 258.89C178.418 258.662 177.088 258.529 175.799 258.222C167.48 256.238 161.885 249.902 162.048 242.706C162.207 235.707 168.315 228.917 176.211 227.341C181.703 226.244 187.172 226.437 192.202 229.342C203.128 235.653 203.266 249.162 192.471 255.683C188.831 257.882 184.84 258.924 180.155 258.89Z" fill="#51276F"/>
</g>
<path d="M181.32 196.052C179.29 195.596 177.604 195.365 176.116 194.696C172.383 193.015 171.942 190.283 174.067 186.977C178.104 180.698 190.865 177.459 197.545 181.004C201.299 182.995 201.961 185.723 199.145 189.114C194.651 194.527 188.577 196.313 181.32 196.052Z" fill="#B38ABC"/>
<path d="M186.125 235.423C190.007 237.006 192.545 239.246 191.976 243.397C191.429 247.391 188.397 249.095 184.925 250.209C184.767 250.26 184.608 250.304 184.447 250.344C179.784 251.492 175.522 250.755 172.075 247.275C170.199 245.381 169.505 242.967 170.902 240.449C173.383 235.978 177.575 234.841 182.291 234.916C183.44 234.934 184.587 235.163 186.125 235.423Z" fill="#814B9D"/>
<defs>
<filter id="filter0_d_585_182" x="160.729" y="171.479" width="52.1582" height="40.697" filterUnits="userSpaceOnUse" color-interpolation-filters="sRGB">
<feFlood flood-opacity="0" result="BackgroundImageFix"/>
<feColorMatrix in="SourceAlpha" type="matrix" values="0 0 0 0 0 0 0 0 0 0 0 0 0 0 0 0 0 0 127 0" result="hardAlpha"/>
<feOffset dy="4"/>
<feGaussianBlur stdDeviation="2"/>
<feComposite in2="hardAlpha" operator="out"/>
<feColorMatrix type="matrix" values="0 0 0 0 0 0 0 0 0 0 0 0 0 0 0 0 0 0 0.25 0"/>
<feBlend mode="normal" in2="BackgroundImageFix" result="effect1_dropShadow_585_182"/>
<feBlend mode="normal" in="SourceGraphic" in2="effect1_dropShadow_585_182" result="shape"/>
</filter>
<filter id="filter1_d_585_182" x="158.045" y="226.724" width="46.4375" height="40.167" filterUnits="userSpaceOnUse" color-interpolation-filters="sRGB">
<feFlood flood-opacity="0" result="BackgroundImageFix"/>
<feColorMatrix in="SourceAlpha" type="matrix" values="0 0 0 0 0 0 0 0 0 0 0 0 0 0 0 0 0 0 127 0" result="hardAlpha"/>
<feOffset dy="4"/>
<feGaussianBlur stdDeviation="2"/>
<feComposite in2="hardAlpha" operator="out"/>
<feColorMatrix type="matrix" values="0 0 0 0 0 0 0 0 0 0 0 0 0 0 0 0 0 0 0.25 0"/>
<feBlend mode="normal" in2="BackgroundImageFix" result="effect1_dropShadow_585_182"/>
<feBlend mode="normal" in="SourceGraphic" in2="effect1_dropShadow_585_182" result="shape"/>
</filter>
</defs>
</svg>
